Coordinates
version=1
nRows=18
nColumns=63
inDegrees=yes

Units are S.I. units (second, meters, Newtons, ...)
If the header above contains a line with 'inDegrees', this indicates whether rotational values are in degrees (yes) or radians (no).

endheader
time	pelvis_tilt	pelvis_list	pelvis_rotation	pelvis_tx	pelvis_ty	pelvis_tz	hip_flexion_r	hip_adduction_r	hip_rotation_r	knee_angle_r	knee_angle_r_beta	ankle_angle_r	subtalar_angle_r	mtp_angle_r	hip_flexion_l	hip_adduction_l	hip_rotation_l	knee_angle_l	knee_angle_l_beta	ankle_angle_l	subtalar_angle_l	mtp_angle_l	L5_S1_Flex_Ext	L5_S1_Lat_Bending	L5_S1_axial_rotation	L4_L5_Flex_Ext	L4_L5_Lat_Bending	L4_L5_axial_rotation	L3_L4_Flex_Ext	L3_L4_Lat_Bending	L3_L4_axial_rotation	L2_L3_Flex_Ext	L2_L3_Lat_Bending	L2_L3_axial_rotation	L1_L2_Flex_Ext	L1_L2_Lat_Bending	L1_L2_axial_rotation	L1_T12_Flex_Ext	L1_T12_Lat_Bending	L1_T12_axial_rotation	Abs_r3	Abs_r2	Abs_r1	Abs_t1	Abs_t2	neck_flexion	neck_bending	neck_rotation	arm_flex_r	arm_add_r	arm_rot_r	elbow_flex_r	pro_sup_r	wrist_flex_r	wrist_dev_r	arm_flex_l	arm_add_l	arm_rot_l	elbow_flex_l	pro_sup_l	wrist_flex_l	wrist_dev_l
1.118644	-3.551257	-4.273519	84.565651	0.204012	0.937486	0.538922	13.481077	-3.033242	4.400106	19.567688	0.341521	29.890811	-5.704716	0.000000	8.869029	2.517070	1.804317	8.868831	0.154790	23.781428	-14.564624	0.000000	0.012606	-0.409256	1.790469	0.023411	-0.544310	1.902373	0.020710	-0.995064	1.902373	0.014407	-0.995064	1.566660	0.011706	-0.834554	1.454756	0.007203	-0.633937	1.342852	0.090043	-4.629581	9.958052	0.000000	0.000000	20.020247	0.875890	-2.626333	7.005829	-12.310913	45.010896	47.076241	65.209981	1.364900	0.729330	18.004868	-12.838581	65.043803	42.252691	74.227595	11.231654	-5.968827
1.135593	-3.552878	-4.310708	84.557793	0.203824	0.937541	0.538631	13.402923	-3.100005	4.168315	19.382296	0.338285	29.945737	-5.218844	0.000000	8.937202	2.528010	1.817844	8.949598	0.156200	23.897793	-14.601190	0.000000	0.018013	-0.396228	1.831076	0.033452	-0.526984	1.945518	0.029594	-0.963390	1.945518	0.020587	-0.963390	1.602191	0.016727	-0.807989	1.487749	0.010293	-0.613758	1.373307	0.128666	-4.482216	10.183895	0.000000	0.000000	20.908468	2.322010	-2.693769	6.936500	-12.444048	45.297339	47.005989	66.218765	0.713353	-0.006439	18.100570	-12.706094	65.339165	42.203064	74.592489	11.116990	-6.007308
1.152542	-3.559146	-4.351653	84.505587	0.203784	0.937634	0.538356	13.314977	-3.156860	4.017678	19.158628	0.334381	30.019860	-4.714485	0.000000	9.030954	2.519895	1.655872	9.066101	0.158233	24.138617	-14.373538	0.000000	0.022603	-0.384329	1.886567	0.041975	-0.511158	2.004477	0.037134	-0.934458	2.004477	0.025833	-0.934458	1.650746	0.020989	-0.783724	1.532835	0.012915	-0.595326	1.414925	0.161449	-4.347608	10.492518	0.000000	0.000000	21.820898	3.463380	-2.864370	6.888480	-12.558988	45.685797	46.878936	67.447615	-0.225496	-0.893787	18.210078	-12.579795	65.585201	42.127163	74.967210	11.314831	-5.781458
1.169492	-3.561429	-4.392340	84.437106	0.203848	0.937758	0.538112	13.216414	-3.214746	3.832694	18.907793	0.330003	30.141687	-4.050509	0.000000	9.149654	2.487063	1.311737	9.227364	0.161048	24.502274	-13.851945	0.000000	0.026281	-0.372148	1.943541	0.048806	-0.494957	2.065012	0.043176	-0.904840	2.065012	0.030036	-0.904840	1.700598	0.024404	-0.758884	1.579127	0.015017	-0.576457	1.457656	0.187720	-4.209811	10.809392	0.000000	0.000000	22.715870	4.308676	-3.011504	6.863253	-12.640490	46.102870	46.711815	69.052355	-1.374748	-1.812497	18.305447	-12.479744	65.749860	42.059113	75.320670	11.721656	-5.318117
1.186441	-3.555593	-4.434479	84.351441	0.204008	0.937901	0.537937	13.120012	-3.271058	3.583293	18.647343	0.325458	30.293606	-3.223581	0.000000	9.298240	2.413532	0.663573	9.444700	0.164841	25.020564	-12.890724	0.000000	0.029037	-0.360046	1.999520	0.053924	-0.478861	2.124490	0.047704	-0.875415	2.124490	0.033186	-0.875415	1.749580	0.026963	-0.734205	1.624610	0.016591	-0.557711	1.499640	0.207405	-4.072910	11.120728	0.000000	0.000000	23.544050	4.855332	-3.140051	6.866760	-12.693300	46.539238	46.514285	71.001800	-2.681773	-2.766389	18.390435	-12.408955	65.842687	42.003431	75.564457	12.295593	-4.654600
1.203390	-3.541101	-4.463574	84.253412	0.204225	0.938084	0.537829	13.014063	-3.305667	3.405572	18.386342	0.320902	30.419090	-2.474832	0.000000	9.433247	2.337638	0.132621	9.657492	0.168555	25.504041	-12.085267	0.000000	0.029479	-0.348416	2.045620	0.054745	-0.463393	2.173471	0.048430	-0.847138	2.173471	0.033691	-0.847138	1.789918	0.027374	-0.710489	1.662066	0.016844	-0.539696	1.534215	0.210562	-3.941348	11.377126	0.000000	0.000000	24.228841	5.099699	-3.229353	6.945853	-12.745010	47.153210	46.303908	72.578549	-4.018037	-3.656330	18.437941	-12.375766	65.825075	41.970618	75.629932	12.980823	-3.861532
1.220339	-3.510822	-4.488154	84.167993	0.204451	0.938291	0.537800	12.911374	-3.325639	3.195980	18.139197	0.316589	30.530891	-1.723580	0.000000	9.572748	2.232293	-0.537165	9.893814	0.172680	26.038828	-11.061001	0.000000	0.028333	-0.336733	2.076537	0.052618	-0.447854	2.206321	0.046549	-0.818732	2.206321	0.032382	-0.818732	1.816970	0.026310	-0.686665	1.687186	0.016190	-0.521599	1.557403	0.202381	-3.809186	11.549076	0.000000	0.000000	24.715000	5.087583	-3.226908	7.056659	-12.774011	47.750515	46.100485	74.229889	-5.268484	-4.426859	18.428958	-12.370300	65.649294	41.961764	75.618268	13.724097	-3.042485
1.237288	-3.470211	-4.509274	84.123821	0.204631	0.938518	0.537854	12.819428	-3.331930	2.985788	17.924327	0.312839	30.590648	-1.116891	0.000000	9.695191	2.134164	-0.997732	10.102814	0.176327	26.434203	-10.293259	0.000000	0.025011	-0.326369	2.092387	0.046447	-0.434071	2.223162	0.041090	-0.793534	2.223162	0.028585	-0.793534	1.830839	0.023225	-0.665532	1.700065	0.014291	-0.505546	1.569291	0.178649	-3.691951	11.637231	0.000000	0.000000	24.979742	4.855024	-3.152340	7.149934	-12.775623	48.192379	45.939493	75.868893	-6.292492	-5.026892	18.406469	-12.393293	65.465584	41.989666	75.363611	14.379368	-2.281774
1.254237	-3.422456	-4.525957	84.115703	0.204770	0.938760	0.537968	12.739598	-3.322267	2.803779	17.747799	0.309758	30.601205	-0.676346	0.000000	9.798609	2.039455	-1.325273	10.292370	0.179636	26.707817	-9.678497	0.000000	0.020888	-0.318087	2.096511	0.038790	-0.423055	2.227542	0.034316	-0.773396	2.227542	0.023872	-0.773396	1.834447	0.019396	-0.648642	1.703415	0.011935	-0.492716	1.572383	0.149198	-3.598261	11.660163	0.000000	0.000000	24.996176	4.462619	-2.994556	7.230984	-12.760459	48.525431	45.823908	77.379738	-7.105314	-5.455939	18.381024	-12.438738	65.323483	42.048726	74.950331	14.877181	-1.648093
1.271186	-3.359449	-4.565160	84.128120	0.204833	0.938945	0.538151	12.708739	-3.293947	2.598161	17.620157	0.307530	30.595746	-0.311298	0.000000	9.943144	1.925554	-1.705505	10.537636	0.183916	26.946269	-9.034960	0.000000	0.020707	-0.309970	2.094362	0.038456	-0.412260	2.225259	0.034020	-0.753661	2.225259	0.023667	-0.753661	1.832566	0.019229	-0.632091	1.701669	0.011832	-0.480144	1.570771	0.147912	-3.506444	11.648211	0.000000	0.000000	24.775848	3.956861	-2.750441	7.279229	-12.767918	48.741356	45.792526	79.077277	-7.812078	-5.805324	18.332844	-12.472943	65.180592	42.131499	74.246847	15.287652	-1.010362
1.288136	-3.295283	-4.617518	84.195273	0.204789	0.939080	0.538397	12.720902	-3.255875	2.408640	17.553070	0.306359	30.536469	-0.180418	0.000000	10.078118	1.830205	-1.874125	10.739760	0.187444	27.001850	-8.635838	0.000000	0.022109	-0.304245	2.080929	0.041059	-0.404645	2.210988	0.036323	-0.739740	2.210988	0.025268	-0.739740	1.820813	0.020530	-0.620416	1.690755	0.012633	-0.471275	1.560697	0.157922	-3.441676	11.573505	0.000000	0.000000	24.378090	3.401510	-2.468854	7.282960	-12.780852	48.794673	45.851695	80.351584	-8.235787	-5.946231	18.281227	-12.516815	65.092343	42.254712	73.429891	15.511744	-0.551399
1.305085	-3.230193	-4.663251	84.309689	0.204676	0.939183	0.538665	12.753562	-3.207110	2.234540	17.544441	0.306208	30.436614	-0.266438	0.000000	10.158759	1.749942	-1.849802	10.850989	0.189385	26.880318	-8.435695	0.000000	0.022398	-0.301264	2.059213	0.041596	-0.400681	2.187914	0.036798	-0.732493	2.187914	0.025599	-0.732493	1.801811	0.020799	-0.614337	1.673110	0.012798	-0.466658	1.544410	0.159989	-3.407956	11.452724	0.000000	0.000000	23.867709	2.892262	-2.152294	7.232112	-12.802721	48.669947	46.013264	81.182032	-8.389615	-5.874189	18.241098	-12.572613	65.098943	42.414015	72.580996	15.476611	-0.346141
1.322034	-3.171321	-4.710528	84.466434	0.204457	0.939224	0.538955	12.818551	-3.159914	2.057490	17.593859	0.307071	30.315205	-0.529415	0.000000	10.203915	1.692118	-1.669282	10.884300	0.189967	26.654747	-8.392515	0.000000	0.024299	-0.300183	2.025472	0.045125	-0.399243	2.152064	0.039920	-0.729864	2.152064	0.027771	-0.729864	1.772288	0.022564	-0.612132	1.645696	0.013884	-0.464983	1.519104	0.173563	-3.395725	11.265066	0.000000	0.000000	23.276546	2.434677	-1.814394	7.154703	-12.832744	48.440550	46.225812	81.482731	-8.296566	-5.638360	18.189114	-12.636647	65.119616	42.620290	71.536231	15.352688	-0.219506
1.338983	-3.131321	-4.749111	84.635311	0.204169	0.939209	0.539270	12.917641	-3.131869	1.854756	17.714470	0.309176	30.181095	-0.863333	0.000000	10.207378	1.666503	-1.356400	10.844709	0.189276	26.347988	-8.519340	0.000000	0.025781	-0.302277	1.990833	0.047878	-0.402028	2.115260	0.042356	-0.734956	2.115260	0.029465	-0.734956	1.741979	0.023940	-0.616403	1.617551	0.014731	-0.468227	1.493124	0.184152	-3.419416	11.072414	0.000000	0.000000	22.652120	2.087935	-1.505989	7.003132	-12.861834	47.970001	46.526871	81.441677	-7.996402	-5.156242	18.175076	-12.700769	65.268046	42.853251	70.541108	14.974316	-0.350885
1.355932	-3.104971	-4.771716	84.815732	0.203813	0.939159	0.539609	13.032395	-3.106774	1.696770	17.883075	0.312119	30.015224	-1.372033	0.000000	10.161330	1.670096	-0.872618	10.725248	0.187191	25.982118	-8.849639	0.000000	0.025720	-0.306359	1.955514	0.047764	-0.407458	2.077734	0.042255	-0.744881	2.077734	0.029395	-0.744881	1.711075	0.023883	-0.624727	1.588855	0.014696	-0.474550	1.466636	0.183713	-3.465595	10.875984	0.000000	0.000000	22.008751	1.843449	-1.256561	6.793007	-12.887136	47.271742	46.882448	81.002757	-7.406128	-4.384597	18.213210	-12.746374	65.588220	43.071824	69.665628	14.240972	-0.846578
1.372881	-3.097406	-4.784565	84.997534	0.203393	0.939066	0.539954	13.172241	-3.103740	1.515738	18.108277	0.316049	29.856462	-1.906162	0.000000	10.092434	1.697939	-0.387088	10.566272	0.184416	25.638808	-9.200380	0.000000	0.025679	-0.311962	1.914262	0.047689	-0.414910	2.033903	0.042189	-0.758506	2.033903	0.029349	-0.758506	1.674979	0.023846	-0.636154	1.555338	0.014673	-0.483230	1.435696	0.183425	-3.528982	10.646549	0.000000	0.000000	21.351723	1.679919	-1.029693	6.554182	-12.905448	46.437019	47.254874	80.186910	-6.540829	-3.378538	18.245808	-12.787681	65.911385	43.300301	68.905590	13.303772	-1.523239
1.389831	-3.105713	-4.775587	85.175165	0.202941	0.938965	0.540351	13.315518	-3.116650	1.330009	18.367219	0.320568	29.692167	-2.486244	0.000000	9.997348	1.744041	0.087670	10.377171	0.181116	25.348516	-9.530470	0.000000	0.022402	-0.318989	1.872805	0.041602	-0.424256	1.989855	0.036804	-0.775591	1.989855	0.025603	-0.775591	1.638705	0.020802	-0.650483	1.521654	0.012800	-0.494115	1.404604	0.160012	-3.608472	10.415981	0.000000	0.000000	20.680392	1.601846	-0.834884	6.306654	-12.915904	45.519626	47.617891	78.981315	-5.473608	-2.206775	18.294881	-12.804671	66.244934	43.496122	68.439470	12.142943	-2.387199
1.406780	-3.136392	-4.747437	85.340760	0.202486	0.938867	0.540758	13.459230	-3.148119	1.174988	18.655054	0.325592	29.505900	-3.120543	0.000000	9.886021	1.813810	0.544650	10.177597	0.177633	25.106820	-9.839879	0.000000	0.017467	-0.328487	1.836542	0.032438	-0.436887	1.951326	0.028696	-0.798683	1.951326	0.019963	-0.798683	1.606974	0.016220	-0.669850	1.492190	0.009981	-0.508826	1.377406	0.124765	-3.715908	10.214295	0.000000	0.000000	20.019003	1.575504	-0.714799	6.051503	-12.908259	44.572436	47.932047	77.580765	-4.309745	-1.022932	18.378066	-12.794401	66.656578	43.629912	68.188721	10.855254	-3.376906
